<svg xmlns="http://www.w3.org/2000/svg" width="553.04" height="485" viewBox="0 0 553.04 485">
    <defs>
        <clipPath id="796hsrxaja">
            <path data-name="패스 1233" d="M385.384 449.833c6.461 8.619 16.817 14.613 27.847 17.114 5.205 1.18 11.384 1.382 14.941-2.081 2.8-2.722 3.069-7.044 1.71-10.684s-4.1-6.745-6.86-9.694a13.659 13.659 0 0 0-2.819-2.481 20.177 20.177 0 0 0-5.751-1.822c-6.664-1.624-13.263-5.462-19.876-4.13s-12.566 9.277-9.192 13.778z" transform="translate(-384.408 -435.778)" style="fill:none"/>
        </clipPath>
        <clipPath id="7g8rgasklb">
            <path data-name="패스 1239" d="M345.539 457.9c.752 2 3.314 2.48 5.443 2.706 10.209 1.085 20.571 3.489 30.61 1.245-.057 0-.114 0 .027.015a40.933 40.933 0 0 0-.542-15.821c-.869-3.719-2.237-7.744-.615-11.2 2.883-.788 5.569 1.571 7.766 3.6 6.041 5.573 13.86 10.183 22.076 9.576a72.215 72.215 0 0 0 7.045-32.446c-8.248-1.5-16.132-4.6-24.362-6.194a93.071 93.071 0 0 1-9.7-1.99c-2.992-.918-5.8-2.336-8.725-3.46a47.042 47.042 0 0 0-19.167-3.073 13.011 13.011 0 0 0-6.673 1.733 11.047 11.047 0 0 0-3.8 5.08c-2.1 5.042-2.09 10.68-1.947 16.138a305.06 305.06 0 0 0 2.561 33.6c.064.005.122.005.003.491z" transform="translate(-342.93 -400.802)" style="fill:none"/>
        </clipPath>
        <clipPath id="414skequvc">
            <path data-name="패스 1247" d="M459.466 446.184c1.9 8.121-4.182 16.492-10.376 22.077s-13.858 9.259-20.526 14.268c-3.141 2.36-6.156 5.15-7.616 8.8a25.818 25.818 0 0 0-1.35 8.576c-.619 14.811-.889 29.637-1.053 44.371-9.329 6.681-21.242 8.3-32.629 9.711-6.9.854-14.376 1.6-19.982-1.734-1.221-12.848.79-25.766 3.02-38.478.745-4.25 1.535-8.553 3.388-12.449 4.053-8.519 10.8-15.982 17.075-23.024 5.6-6.282 11.243-11.978 13.286-20.322 1.1-5.27 2.485-11 6.77-14.262 1.933-1.47 10.483-4.218 12.789-4.978 11.818-3.892 18.184-5.275 30.379-2.809 2.336.472 4.9 1.38 5.888 3.551.922 2.034.393 4.377.937 6.702z" transform="translate(-365.563 -434.696)" style="fill:none"/>
        </clipPath>
        <clipPath id="62ny153mqd">
            <path data-name="패스 1262" d="M440.514 293.026c-2.192 6.943-4.369 14.292-2.828 21.413a12.724 12.724 0 0 0 2.282 5.249 12.037 12.037 0 0 0 2.719 2.44 18.523 18.523 0 0 0 14.639 2.645 18.773 18.773 0 0 0 11.826-9.138 8.709 8.709 0 0 0 6.375-3.555c1.121-1.552 1.623-3.923.282-5.284a5.071 5.071 0 0 0-5.861-.714c-.231-3.325-2.265-5.4-4.71-7.624a29.643 29.643 0 0 0-8.471-5.029 27.534 27.534 0 0 0-8.156-2.385c-2.829-.266-6.721-.727-8.111 1.957a.358.358 0 0 0 .579.116c.156-.18.045-.517-.565-.091z" transform="translate(-437.167 -290.836)" style="fill:none"/>
        </clipPath>
    </defs>
    <g data-name="그룹 469" transform="translate(-.354)">
        <path data-name="패스 1128" d="M246.949 231.615c-1.068-15.08 2.015-30.127 2.542-45.235s-2-31.355-12.284-42.437a25.86 25.86 0 0 0-6.727-5.355 28.309 28.309 0 0 0-7.727-2.588 49.458 49.458 0 0 0-26.236 1.895c-3.117 1.112-6.166 2.549-9.3 3.591a81.061 81.061 0 0 0-3.419-.058c-5.691.034-11.072-2.926-15.143-6.9-4.837-4.725-8.088-10.8-11.263-16.77-8.839-16.623-17.714-33.328-23.9-51.111s-9.612-36.835-6.879-55.592c-30.016-1.083-59.677.482-87.852 5.41-15.913 2.784-26.41 2.908-38.25 5.755.2.1.4.2 1.007-.012-2.388 40.24 10.466 80.374 31.069 115.021A163.627 163.627 0 0 0 48.022 159.4a117.278 117.278 0 0 0 28.053 24.127c6.5 4 13.535 7.4 21.094 8.433 6.4.87 12.928 0 19.22-1.477a102.183 102.183 0 0 0 25.753-9.881 28.083 28.083 0 0 1 2.54 9.612 62.658 62.658 0 0 1-.92 17.664c-1.383 7.039-3.961 13.777-6.074 20.632-5.5 17.857-7.851 36.97-4.388 55.332s13.114 35.912 27.831 46.588q19.311-10.259 39.025-19.73c16.768-8.057 34.071-15.775 52.532-18.085 4.369-.547 9-.864 12.856-3.91-8.518-18.244-17.174-37.005-18.595-57.09z" transform="translate(-.157 -3.288)" style="fill:#2d3262"/>
        <path data-name="패스 1129" d="M154.351 326.5a112.1 112.1 0 0 0-2.564 20.506c5-1.3 10.546-1.668 15.945-2.23a215.736 215.736 0 0 0 28.247-4.863l3.1-20.577c-15.658 1.679-31.018 4.283-44.728 7.164z" transform="translate(-46.526 -98.122)" style="fill:#4246dc"/>
        <path data-name="패스 1130" d="M254.017 222.552c-1.067-15.08 2.016-30.127 2.543-45.235s-2-31.355-12.284-42.437a25.882 25.882 0 0 0-6.727-5.355 28.31 28.31 0 0 0-7.727-2.585 49.456 49.456 0 0 0-26.236 1.894c-3.117 1.113-6.167 2.549-9.3 3.592a81.08 81.08 0 0 0-3.42-.058c-5.691.035-11.071-2.926-15.143-6.9-4.837-4.725-8.088-10.8-11.263-16.77-8.839-16.623-17.715-33.327-23.9-51.11s-9.612-36.835-6.879-55.593C103.671.909 74.008 2.474 45.834 7.4c-15.918 2.787-26.415 2.91-38.255 5.757.2.1.4.2 1.007-.012C6.2 53.385 19.053 93.519 39.655 128.166a163.7 163.7 0 0 0 15.435 22.17 117.3 117.3 0 0 0 28.053 24.127c6.5 4 13.535 7.4 21.094 8.432 6.4.87 12.928 0 19.22-1.477a102.16 102.16 0 0 0 25.753-9.88 28.068 28.068 0 0 1 2.54 9.612 62.631 62.631 0 0 1-.92 17.664c-1.383 7.039-3.961 13.777-6.075 20.632-5.5 17.856-7.85 36.97-4.388 55.332s13.115 35.912 27.832 46.588q19.31-10.259 39.024-19.731c16.769-8.057 34.072-15.775 52.532-18.085 4.369-.546 9-.864 12.856-3.91-8.517-18.24-17.173-37.005-18.594-57.088z" transform="translate(-2.323 -.51)" style="fill:#f7f7f7"/>
        <path data-name="패스 1131" d="M146.85 254.628s12.473-1.159 24.467-13.449c0 0 12.024-13.978 20.508 2.094a74.5 74.5 0 0 1-44.975 11.355z" transform="translate(-45.013 -72.371)" style="fill:#a5a5a5"/>
        <path data-name="패스 1132" d="M167.562 336.9a14.081 14.081 0 0 0 1.975 4.217 2.753 2.753 0 0 0 1.06 1.021 1.965 1.965 0 0 0 1.118.113c1.793-.292 2.811-2.162 3.562-3.818l2.861-6.313" transform="translate(-51.362 -102.04)" style="stroke-miterlimit:10;stroke:#35ddd8;stroke-width:.598px;fill:none"/>
        <path data-name="패스 1133" d="M621.95 473.969c-3.184 10.82-4.287 22.13-5.25 33.367-.6 6.987-1.144 14.078.245 20.926a4.249 4.249 0 0 0 4.114.578c.5-13.021-1.387-26.182.791-39.028.82-4.838 2.216-9.652 1.956-14.553-.026-.492-.415-1.168-.848-1.022-.244-.061-.488-.122-1.008-.268z" transform="translate(-188.841 -145.656)" style="fill:#1fb4b0"/>
        <path data-name="패스 1134" d="M616.435 592.031a4.679 4.679 0 0 0-5.246-2.306c-1.9.541-3.52 2.337-4.526 4.546a7.408 7.408 0 0 0 8.026.964 4.5 4.5 0 0 0 1.948-1.68 106.381 106.381 0 0 0 1.694 11.825.76.76 0 0 0 .963-.207 82.677 82.677 0 0 0-1.786-12.878 5.105 5.105 0 0 0 4.259 2.517 3.4 3.4 0 0 0 3.62-3.086c-1.335-2.655-3.908-4.1-6.272-3.524a3.436 3.436 0 0 0-2.68 3.828z" transform="translate(-185.957 -180.748)" style="fill:#1fb4b0"/>
        <path data-name="패스 1135" d="M252.036 596.443a7.8 7.8 0 0 0 7.736-.888 10.679 10.679 0 0 0 2.758-3.343 9.559 9.559 0 0 0 1.042-2.485 18.9 18.9 0 0 0-4.205-.194 7.245 7.245 0 0 0-3.925 1.488 10.215 10.215 0 0 0-1.557 1.755 7.693 7.693 0 0 0-1.849 3.667z" transform="translate(-77.255 -181.178)" style="fill:#1fb4b0"/>
        <path data-name="패스 1136" d="M307.528 574.347a8.521 8.521 0 0 0-2.719 7.177 10.886 10.886 0 0 0 1.326 3.937 8.769 8.769 0 0 0 1.429 2.044 20.249 20.249 0 0 0 1.991-3.593 8.094 8.094 0 0 0 .593-4.114 10.534 10.534 0 0 0-.649-2.162 7.24 7.24 0 0 0-1.971-3.289z" transform="translate(-93.417 -176.539)" style="fill:#1fb4b0"/>
        <path data-name="패스 1137" d="M287.9 577.909a6.76 6.76 0 0 0 1.68 5.716 8.534 8.534 0 0 0 2.623 1.846 6.714 6.714 0 0 0 1.81.621 16.092 16.092 0 0 0-.46-3.149 6.454 6.454 0 0 0-1.546-2.834 8.227 8.227 0 0 0-1.393-1.051 5.586 5.586 0 0 0-2.714-1.149z" transform="translate(-88.211 -177.631)" style="fill:#35ddd8"/>
        <path data-name="패스 1138" d="M607.922 453.686c-.64 3.91-1.129 8.19.89 11.6a13.455 13.455 0 0 0 4.269 4.159 23.983 23.983 0 0 0 6.958 3.231 7.9 7.9 0 0 0 1.364-5.316 14.436 14.436 0 0 0-13.481-13.673z" transform="translate(-186.171 -139.395)" style="fill:#1fb4b0"/>
        <path data-name="패스 1139" d="M598.374 489.547a11.818 11.818 0 0 0 5.246 8.946 11.473 11.473 0 0 0 10.269 1.117 8.976 8.976 0 0 0-1.8-6 13.236 13.236 0 0 0-4.953-3.964c-2.859-1.387-6.383-1.922-8.762-.099z" transform="translate(-183.416 -150.05)" style="fill:#1fb4b0"/>
        <path data-name="패스 1140" d="M622.743 530.547a8.186 8.186 0 0 0 7.277-1.007 10.056 10.056 0 0 0 4.119-6.746 16.557 16.557 0 0 0-5.52-.708 7.4 7.4 0 0 0-4.969 2.3 5.788 5.788 0 0 0-.907 6.161z" transform="translate(-190.734 -160.393)" style="fill:#1fb4b0"/>
        <path data-name="패스 1141" d="M502.053 604.15a10.449 10.449 0 0 0-7.015-3.818 7.618 7.618 0 0 0-2.784.03 7.713 7.713 0 0 0-4.707 4.142 13.255 13.255 0 0 0 13.678.833q-.007 6.1-.018 12.193a1.642 1.642 0 0 0 1.215-.048c-.153-4.078-.307-8.157-.408-12.28a7.489 7.489 0 0 0 6.05 3.2 6.456 6.456 0 0 0 5.715-3.563 3.824 3.824 0 0 0-1.583-2.363 7.441 7.441 0 0 0-5.611-1.445 5.875 5.875 0 0 0-4.532 3.119z" transform="translate(-149.444 -184.47)" style="fill:#1fb4b0"/>
        <path data-name="패스 1142" d="M510.075 609.706a7.377 7.377 0 0 0-4.953-2.7 5.382 5.382 0 0 0-1.966.021 5.447 5.447 0 0 0-3.324 2.924 9.358 9.358 0 0 0 9.657.588q-.005 4.307-.012 8.609a1.156 1.156 0 0 0 .858-.033c-.108-2.88-.216-5.76-.288-8.671a5.288 5.288 0 0 0 4.272 2.257 4.558 4.558 0 0 0 4.035-2.516 2.7 2.7 0 0 0-1.118-1.668 5.256 5.256 0 0 0-3.962-1.02 4.148 4.148 0 0 0-3.199 2.209z" transform="translate(-153.21 -186.527)" style="fill:#35ddd8"/>
        <path data-name="패스 1143" d="M552.748 586.3a11.435 11.435 0 0 0-7.451-3.273 6.748 6.748 0 0 0-3.934.872 3.675 3.675 0 0 0-1.8 3.423c0-.03 0-.06.016-.061a10.487 10.487 0 0 1 12.464 1.768 61.6 61.6 0 0 0 3.085 11.076.99.99 0 0 0 .924-.23 82.988 82.988 0 0 0-3.288-11.438 5.776 5.776 0 0 1 4.286-2.874 10.093 10.093 0 0 1 5.187.773 2.98 2.98 0 0 0-1.121-2.5 5.426 5.426 0 0 0-2.6-1.092 6.369 6.369 0 0 0-3.884.429 3 3 0 0 0-1.884 3.127z" transform="translate(-165.38 -179.075)" style="fill:#35ddd8"/>
        <path data-name="패스 1144" d="M331.142 616.667a9.971 9.971 0 0 0-6.074-2.345 6.123 6.123 0 0 0-3.207.625 2.565 2.565 0 0 0-1.47 2.453c0-.021 0-.042.013-.044a9.447 9.447 0 0 1 10.161 1.267 40.017 40.017 0 0 0 2.515 7.936.888.888 0 0 0 .752-.164 54.036 54.036 0 0 0-2.68-8.2 4.77 4.77 0 0 1 3.494-2.06 9.259 9.259 0 0 1 4.229.555 2.034 2.034 0 0 0-.915-1.795 4.757 4.757 0 0 0-2.122-.783 5.853 5.853 0 0 0-3.166.307 2.138 2.138 0 0 0-1.53 2.248z" transform="translate(-98.201 -188.704)" style="fill:#1fb4b0"/>
        <path data-name="패스 1145" d="M626.787 601.241a5.166 5.166 0 0 1 3.444-2.453 2.755 2.755 0 0 1 1.994.343 2.561 2.561 0 0 1 1.117 2.064c0-.019 0-.037-.013-.037a4.368 4.368 0 0 0-6.01 1.768 47.877 47.877 0 0 1-.774 7.144.418.418 0 0 1-.47-.1 64.444 64.444 0 0 1 .849-7.383 2.942 2.942 0 0 0-2.3-1.587 4.021 4.021 0 0 0-2.5.759 2.148 2.148 0 0 1 .383-1.638 2.421 2.421 0 0 1 1.207-.825 2.521 2.521 0 0 1 1.938.068 2.016 2.016 0 0 1 1.135 1.877z" transform="translate(-190.686 -184.016)" style="fill:#35ddd8"/>
        <g data-name="그룹 456">
            <path data-name="패스 1146" d="M170.957 403.514a94.336 94.336 0 0 0 2.177 35.2 140.27 140.27 0 0 0 8.691 23.487 275.506 275.506 0 0 0 45.744 69.624c5.779 6.415 12.2 12.772 20.384 15.479a8.57 8.57 0 0 0 3.889-3.821 196.876 196.876 0 0 1-74.215-100.9 94.455 94.455 0 0 1-4.776-23.128c-.33-5.833.16-11.731-1.334-17.378-.462.285-.496.936-.56 1.437z" transform="translate(-52.172 -123.733)" style="fill:#35ddd8"/>
            <path data-name="패스 1147" d="M192.476 549.716z" transform="translate(-58.999 -168.989)" style="fill:#1fb4b0"/>
            <path data-name="패스 1149" d="M181.4 411.37a8.048 8.048 0 0 1-.585 4.545 17.879 17.879 0 0 1-2.261 3.691 16.651 16.651 0 0 1-2.993 3.343 4.744 4.744 0 0 1-3.967 1.073 15.422 15.422 0 0 1 2.866-8.95 9.3 9.3 0 0 1 6.969-3.98l.047.172" transform="translate(-52.597 -126.497)" style="fill:#35ddd8"/>
            <path data-name="패스 1150" d="M148.816 432.788a12.958 12.958 0 0 1 10.141.567 17.444 17.444 0 0 1 8.164 7.863 13.337 13.337 0 0 1-10.515-.053 14.785 14.785 0 0 1-8.072-8.645" transform="translate(-45.529 -132.908)" style="fill:#35ddd8"/>
            <path data-name="패스 1151" d="M182.776 465.855c-1.355-1.651-.933-3.756-.359-5.478a24.067 24.067 0 0 1 4.361-8.383 11.078 11.078 0 0 1 8.825-4.034 15.655 15.655 0 0 1-2.138 12.04 13.324 13.324 0 0 1-10.689 5.855z" transform="translate(-55.748 -137.797)" style="fill:#35ddd8"/>
            <path data-name="패스 1152" d="M197.676 500.851a14.064 14.064 0 0 1 2.241-12.245 20.218 20.218 0 0 1 10.471-7.031c.951 4.4.959 9.061-.849 13s-5.657 7.025-11.863 6.276z" transform="translate(-60.422 -148.102)" style="fill:#35ddd8"/>
            <path data-name="패스 1153" d="M198.719 525.894a15.909 15.909 0 0 1-11.576 4.481 16.431 16.431 0 0 1-11.409-5.3 8.886 8.886 0 0 1 5.487-4.48 21.8 21.8 0 0 1 7.26-.738 17.921 17.921 0 0 1 4.777.611 7.821 7.821 0 0 1 5.461 5.426z" transform="translate(-53.867 -159.829)" style="fill:#35ddd8"/>
            <path data-name="패스 1154" d="M220.677 511.942a15.429 15.429 0 0 1-6.79 5.482 12.547 12.547 0 0 1-7.112.755c-2.311-.445-4.418-1.811-4.165-4.458a11.818 11.818 0 0 1 4.757-3.79 12.928 12.928 0 0 1 5.1-1.047c3.373-.041 6.475 1.058 8.21 3.058z" transform="translate(-62.099 -156.473)" style="fill:#1fb4b0"/>
            <path data-name="패스 1155" d="M211.578 561.626a15.429 15.429 0 0 1 8.181-3.038 12.553 12.553 0 0 1 6.982 1.547c2.049 1.157 3.612 3.123 2.53 5.552a11.81 11.81 0 0 1-5.716 2.08 12.914 12.914 0 0 1-5.167-.63c-3.211-1.037-5.802-3.063-6.81-5.511z" transform="translate(-64.854 -171.701)" style="fill:#35ddd8"/>
            <path data-name="패스 1156" d="M220.792 582.853a15.432 15.432 0 0 1 6.293-6.046 12.547 12.547 0 0 1 7.02-1.363c2.34.245 4.558 1.424 4.533 4.083a11.81 11.81 0 0 1-4.413 4.185 12.912 12.912 0 0 1-4.99 1.482c-3.358.331-6.542-.494-8.443-2.341z" transform="translate(-67.678 -176.856)" style="fill:#35ddd8"/>
            <path data-name="패스 1157" d="M175.872 495.2a10.442 10.442 0 0 1 5.536-2.063 8.492 8.492 0 0 1 4.728 1.041c1.388.782 2.449 2.111 1.718 3.757a8 8 0 0 1-3.868 1.413 8.726 8.726 0 0 1-3.5-.422 7.253 7.253 0 0 1-4.614-3.726z" transform="translate(-53.909 -151.641)" style="fill:#1fb4b0"/>
            <path data-name="패스 1158" d="M234.052 533.366a9.413 9.413 0 0 0-6.806 7.417 13.645 13.645 0 0 0 .479 5.708 13.145 13.145 0 0 0 1.355 3.4 23.085 23.085 0 0 0 4.348-3.346 8.558 8.558 0 0 0 2.457-4.813 12.937 12.937 0 0 0-.144-3.089 10.407 10.407 0 0 0-1.689-5.277z" transform="translate(-69.617 -163.977)" style="fill:#1fb4b0"/>
            <path data-name="패스 1159" d="M156.694 424.193a4.678 4.678 0 0 0 1.118 3.171 13.6 13.6 0 0 0 2.589 2.34 14.683 14.683 0 0 0 3.233 2 5.657 5.657 0 0 0 3.868.244 9.869 9.869 0 0 0-3.815-6.019 10.072 10.072 0 0 0-7.054-1.929l-.023.129" transform="translate(-48.005 -130.435)" style="fill:#1fb4b0"/>
            <path data-name="패스 1160" d="M187.232 426.749a15.194 15.194 0 0 0-9.533 6.512 14.239 14.239 0 0 0-1.945 11.193 16.129 16.129 0 0 0 10.3-6.324 12.1 12.1 0 0 0 1.25-11.766" transform="translate(-53.745 -131.179)" style="fill:#1fb4b0"/>
            <path data-name="패스 1161" d="M173.052 463.3c.2-2.029-1.279-3.489-2.67-4.564a23.7 23.7 0 0 0-8.021-4.411 10.764 10.764 0 0 0-9.254 1.4 15.3 15.3 0 0 0 8.216 8.5 12.983 12.983 0 0 0 11.729-.925z" transform="translate(-46.931 -139.608)" style="fill:#1fb4b0"/>
            <path data-name="패스 1162" d="M210.585 538.224a11.421 11.421 0 0 0-9.815-3.274 16.273 16.273 0 0 0-9.141 5.075c2.86 2.507 6.265 4.4 9.838 4.632s7.297-1.43 9.118-6.433z" transform="translate(-58.739 -164.426)" style="fill:#1fb4b0"/>
            <path data-name="패스 1163" d="M176.235 481.3c-2.271-3.047-6.552-5.4-11.044-6.487a31.023 31.023 0 0 0-13.26-.183 27.068 27.068 0 0 0 10.573 7.476c4.372 1.669 9.627 2.038 13.731-.806z" transform="translate(-46.571 -145.781)" style="fill:#1fb4b0"/>
            <path data-name="패스 1164" d="M256.337 555.48c-2.46.284-4.807 2.153-6.349 5.057a19.7 19.7 0 0 0-1.931 10.58 3.768 3.768 0 0 0 4.058-1.042 16.621 16.621 0 0 0 3.059-4.365 17.469 17.469 0 0 0 1.525-3.5 9.9 9.9 0 0 0-.362-6.73z" transform="translate(-76.012 -170.756)" style="fill:#1fb4b0"/>
        </g>
        <g data-name="그룹 457">
            <path data-name="패스 1165" d="M251.113 463.018a54.642 54.642 0 0 1 11.605 18.643 84.923 84.923 0 0 1 3.854 15.36 175.733 175.733 0 0 1 .693 53.595c-.777 5.569-1.917 11.367-5.333 16.037a5.422 5.422 0 0 1-3.476-.359c9.878-26.346 11.038-55.234 3.249-80.87a55.657 55.657 0 0 0-5.828-13.6c-1.94-3.076-4.343-5.855-5.59-9.308.355-.04.613.275.826.502z" transform="translate(-76.719 -142.26)" style="fill:#35ddd8"/>
            <path data-name="패스 1166" d="M292.922 545.251z" transform="translate(-89.787 -167.621)" style="fill:#1fb4b0"/>
            <path data-name="패스 1168" d="M246.33 472.26a4.631 4.631 0 0 0 1.964 2.058 10.713 10.713 0 0 0 2.554.949 10.374 10.374 0 0 0 2.821.48 3.329 3.329 0 0 0 2.521-1.06 8.94 8.94 0 0 0-4.788-3.361 6.228 6.228 0 0 0-5.188.8l.037.106" transform="translate(-75.47 -144.889)" style="fill:#35ddd8"/>
            <path data-name="패스 1169" d="M270.966 468.74a9.379 9.379 0 0 0-5.241 4.378 11.707 11.707 0 0 0-1.532 7.263 9.636 9.636 0 0 0 5.629-4.27 9.806 9.806 0 0 0 1.2-7.62" transform="translate(-80.953 -144.092)" style="fill:#35ddd8"/>
            <path data-name="패스 1170" d="M264.439 500.732a3.252 3.252 0 0 0-1.8-2.909 14.227 14.227 0 0 0-5.385-2.471 7.544 7.544 0 0 0-6.205 1.526 9.034 9.034 0 0 0 5.52 5.216 8.931 8.931 0 0 0 7.87-1.362z" transform="translate(-76.954 -152.283)" style="fill:#35ddd8"/>
            <path data-name="패스 1171" d="M269.244 524.591a8.132 8.132 0 0 0-5.648-5.275 13.314 13.314 0 0 0-8.177.677 12 12 0 0 0 5.174 6.218c2.407 1.258 5.588 1.263 8.651-1.62z" transform="translate(-78.292 -159.557)" style="fill:#35ddd8"/>
            <path data-name="패스 1172" d="M276.322 536.7a10.971 10.971 0 0 0 7.845-2.409 11.687 11.687 0 0 0 4.2-7.28 5.725 5.725 0 0 0-4.573-.047 15.669 15.669 0 0 0-4.168 2.558 13.045 13.045 0 0 0-2.345 2.235 5.231 5.231 0 0 0-.959 4.943z" transform="translate(-84.619 -161.875)" style="fill:#35ddd8"/>
            <path data-name="패스 1173" d="M260.26 538.539a9.959 9.959 0 0 0 5.637.026 9.012 9.012 0 0 0 4.094-2.489c1.08-1.157 1.716-2.7.62-3.931a7.637 7.637 0 0 0-3.931.007 9.194 9.194 0 0 0-3.119 1.529 7.675 7.675 0 0 0-3.301 4.858z" transform="translate(-79.775 -163.526)" style="fill:#1fb4b0"/>
            <path data-name="패스 1174" d="M283.419 559.653a10.692 10.692 0 0 0-5.5 1.768 9.11 9.11 0 0 0-3.189 3.6c-.68 1.411-.807 3.034.656 3.823a8.193 8.193 0 0 0 3.825-1.257 9.408 9.408 0 0 0 2.548-2.4 7.306 7.306 0 0 0 1.66-5.534z" transform="translate(-84.062 -172.035)" style="fill:#35ddd8"/>
            <path data-name="패스 1175" d="M285.966 574.757a9.766 9.766 0 0 0-5.575-.512 8.93 8.93 0 0 0-4.266 2.145c-1.168 1.068-1.931 2.557-.954 3.89a7.488 7.488 0 0 0 3.89.331 9.056 9.056 0 0 0 3.218-1.266 7.722 7.722 0 0 0 3.687-4.588z" transform="translate(-84.209 -176.45)" style="fill:#35ddd8"/>
            <path data-name="패스 1176" d="M279.644 511.5a7.229 7.229 0 0 0-3.723 1.192 6.166 6.166 0 0 0-2.162 2.433c-.462.955-.549 2.053.44 2.589a5.551 5.551 0 0 0 2.59-.848 6.348 6.348 0 0 0 1.727-1.625 4.945 4.945 0 0 0 1.128-3.741z" transform="translate(-83.811 -157.277)" style="fill:#1fb4b0"/>
            <path data-name="패스 1177" d="M263 554.79a5.884 5.884 0 0 1 6.348 1 7.918 7.918 0 0 1 1.814 3.074 8.016 8.016 0 0 1 .5 2.261 15.047 15.047 0 0 1-3.551.066 5.069 5.069 0 0 1-3.067-1.438 7.46 7.46 0 0 1-1.044-1.617 6.26 6.26 0 0 1-1-3.346z" transform="translate(-80.613 -170.389)" style="fill:#1fb4b0"/>
            <path data-name="패스 1178" d="M265.067 467.483a2.83 2.83 0 0 1 .55 2.052 9.2 9.2 0 0 1-.542 2.225 10.282 10.282 0 0 1-1.013 2.311 4.1 4.1 0 0 1-1.989 1.684 6.269 6.269 0 0 1-.135-4.577 7.276 7.276 0 0 1 3.09-3.82l.06.056" transform="translate(-80.177 -143.745)" style="fill:#1fb4b0"/>
            <path data-name="패스 1179" d="M248.272 482.826a9.987 9.987 0 0 1 7.485-.56 8.215 8.215 0 0 1 5.106 4.864 10.719 10.719 0 0 1-7.827.964 7.005 7.005 0 0 1-4.941-5.433" transform="translate(-76.046 -148.167)" style="fill:#1fb4b0"/>
            <path data-name="패스 1180" d="M268.524 494.217c-.841-.945-.579-2.277-.222-3.38a16.763 16.763 0 0 1 2.708-5.463 7.668 7.668 0 0 1 5.479-3.028 10.188 10.188 0 0 1-1.328 7.6 9.309 9.309 0 0 1-6.637 4.271z" transform="translate(-82.137 -148.339)" style="fill:#1fb4b0"/>
            <path data-name="패스 1181" d="M275.066 547.868a8.2 8.2 0 0 1 4.085-5.613 10.927 10.927 0 0 1 6.752-1.128 12.176 12.176 0 0 1-3.6 6.307 5.763 5.763 0 0 1-7.237.434z" transform="translate(-84.314 -166.323)" style="fill:#1fb4b0"/>
            <path data-name="패스 1182" d="M272.218 504.311c.114-2.454 1.562-5.367 3.578-7.73a22.513 22.513 0 0 1 7.057-5.443 18.762 18.762 0 0 1-2.966 8.039c-1.744 2.607-4.433 4.913-7.669 5.134z" transform="translate(-83.441 -151.034)" style="fill:#1fb4b0"/>
            <path data-name="패스 1183" d="M258.723 575.137a5.714 5.714 0 0 1 5.246-.01 11.329 11.329 0 0 1 4.876 4.56 2.638 2.638 0 0 1-2.558 1.112 10.047 10.047 0 0 1-3.227-.968 10.216 10.216 0 0 1-2.09-1.152 5.748 5.748 0 0 1-2.247-3.542z" transform="translate(-79.304 -176.585)" style="fill:#1fb4b0"/>
        </g>
        <path data-name="패스 1184" d="M723.659 376.649z" transform="translate(-221.819 -115.715)" style="fill:#1fb4b0"/>
        <path data-name="패스 1186" d="M575.183 312.91a11.317 11.317 0 0 0 2.542 2.834 19.971 19.971 0 0 0 2.778 1.812 15.065 15.065 0 0 0 2.893 1.383c.906.27 1.721.233 2.131-.378a20.324 20.324 0 0 0-5.691-5.111c-1.927-1.082-3.7-1.383-4.806-.716l.069.126" transform="translate(-176.26 -95.973)" style="fill:#35ddd8"/>
        <path data-name="패스 1187" d="M596.895 308.6a9.379 9.379 0 0 0-5.241 4.378 11.71 11.71 0 0 0-1.532 7.262 9.629 9.629 0 0 0 5.629-4.27 9.8 9.8 0 0 0 1.2-7.62" transform="translate(-180.858 -94.737)" style="fill:#35ddd8"/>
        <path data-name="패스 1188" d="M591.083 387.8c.209-2.248-1.4-3.7-2.926-4.74a23.2 23.2 0 0 0-8.773-4.025 12.283 12.283 0 0 0-10.108 2.485 14.713 14.713 0 0 0 8.992 8.5 14.551 14.551 0 0 0 12.815-2.22z" transform="translate(-174.497 -116.387)" style="fill:#35ddd8"/>
        <path data-name="패스 1189" d="M586.122 329.812a8.132 8.132 0 0 0-5.648-5.275 13.315 13.315 0 0 0-8.177.678 12 12 0 0 0 5.174 6.218c2.403 1.257 5.588 1.261 8.651-1.621z" transform="translate(-175.423 -99.594)" style="fill:#35ddd8"/>
        <path data-name="패스 1190" d="M675.812 537.6a7.909 7.909 0 0 0-.693-7.443 14.269 14.269 0 0 0-6.35-5.192 11.377 11.377 0 0 0-.255 7.75c.929 2.502 3.23 4.705 7.298 4.885z" transform="translate(-204.741 -161.29)" style="fill:#35ddd8"/>
        <path data-name="패스 1191" d="M618.273 479.351a8.132 8.132 0 0 0-5.647-5.276 13.322 13.322 0 0 0-8.177.678 12 12 0 0 0 5.175 6.218c2.401 1.258 5.587 1.263 8.649-1.62z" transform="translate(-185.278 -145.537)" style="fill:#35ddd8"/>
        <path data-name="패스 1192" d="M619.811 514.745a21.17 21.17 0 0 0 11.41-1.972c3.207-1.646 5.359-4.186 5.828-6.9a12.448 12.448 0 0 0-6.723-.265 24.824 24.824 0 0 0-6 2.293 16.273 16.273 0 0 0-3.338 2.067c-1.469 1.286-2.172 2.949-1.177 4.777z" transform="translate(-189.845 -155.24)" style="fill:#35ddd8"/>
        <path data-name="패스 1193" d="M577.138 343.759a9.96 9.96 0 0 0 5.637.026 9.015 9.015 0 0 0 4.094-2.488c1.08-1.157 1.716-2.7.62-3.931a7.649 7.649 0 0 0-3.931.007 9.181 9.181 0 0 0-3.119 1.53 7.673 7.673 0 0 0-3.301 4.856z" transform="translate(-176.907 -103.572)" style="fill:#1fb4b0"/>
        <path data-name="패스 1194" d="M628.823 360.007a10.69 10.69 0 0 0-5.765.33 9.1 9.1 0 0 0-3.992 2.68c-1.013 1.195-1.544 2.734-.327 3.865a8.2 8.2 0 0 0 4.018-.255 9.406 9.406 0 0 0 3.07-1.685 7.3 7.3 0 0 0 2.996-4.935z" transform="translate(-189.443 -110.528)" style="fill:#35ddd8"/>
        <path data-name="패스 1195" d="M627.758 375.064a9.76 9.76 0 0 0-5.266-1.9 8.932 8.932 0 0 0-4.668 1c-1.4.74-2.512 1.99-1.9 3.526a7.487 7.487 0 0 0 3.682 1.3 9.061 9.061 0 0 0 3.433-.416 7.725 7.725 0 0 0 4.719-3.51z" transform="translate(-188.742 -114.644)" style="fill:#35ddd8"/>
        <path data-name="패스 1196" d="M635.868 482.8a10.034 10.034 0 0 0-6.854.227 10.6 10.6 0 0 0-4.761 3.883c-1.212 1.766-1.854 4.079-.414 5.856a7.679 7.679 0 0 0 4.777-.2 10.255 10.255 0 0 0 3.66-2.415 11.492 11.492 0 0 0 3.592-7.351z" transform="translate(-190.968 -148.181)" style="fill:#35ddd8"/>
        <path data-name="패스 1197" d="M643.892 434.3a9.586 9.586 0 0 1 10.342 1.623 12.9 12.9 0 0 1 2.956 5.008 13.063 13.063 0 0 1 .822 3.682 24.431 24.431 0 0 1-5.784.107 8.248 8.248 0 0 1-5-2.342 12.159 12.159 0 0 1-1.7-2.634 10.194 10.194 0 0 1-1.636-5.444z" transform="translate(-197.364 -133.179)" style="fill:#35ddd8"/>
        <path data-name="패스 1198" d="M645.53 328.316a2.831 2.831 0 0 1 .55 2.052 9.189 9.189 0 0 1-.542 2.225 10.264 10.264 0 0 1-1.013 2.311 4.1 4.1 0 0 1-1.989 1.684 6.27 6.27 0 0 1-.135-4.577 7.285 7.285 0 0 1 3.09-3.82l.06.056" transform="translate(-196.799 -100.832)" style="fill:#1fb4b0"/>
        <path data-name="패스 1199" d="M577.059 366.524a16.265 16.265 0 0 1 11.776 3.291 13.384 13.384 0 0 1 5.128 10.281 17.455 17.455 0 0 1-12.526-2.861 11.417 11.417 0 0 1-4.558-11.062" transform="translate(-176.772 -112.504)" style="fill:#1fb4b0"/>
        <path data-name="패스 1200" d="M594.453 334.078c-.841-.945-.578-2.277-.222-3.38a16.751 16.751 0 0 1 2.709-5.463 7.667 7.667 0 0 1 5.479-3.028 10.191 10.191 0 0 1-1.329 7.6 9.309 9.309 0 0 1-6.637 4.271z" transform="translate(-182.042 -98.995)" style="fill:#1fb4b0"/>
        <path data-name="패스 1201" d="M618.194 360.682c-1.622-1.845-2.6-4.947-2.793-8.047a22.523 22.523 0 0 1 1.3-8.818 18.758 18.758 0 0 1 3.448 7.845c.551 3.086.219 6.613-1.955 9.02z" transform="translate(-188.623 -105.637)" style="fill:#1fb4b0"/>
        <path data-name="패스 1202" d="M322.871 626.936a7.966 7.966 0 0 1 5.384-2.482 5.871 5.871 0 0 1 2.071.123 5.606 5.606 0 0 1 3.327 3.143 10.2 10.2 0 0 1-10.216.1q-.255 4.377-.507 8.747a1.26 1.26 0 0 1-.9-.078c.288-2.92.576-5.841.827-8.8a5.707 5.707 0 0 1-4.639 2.072 4.77 4.77 0 0 1-4.1-2.765 2.784 2.784 0 0 1 1.279-1.637 5.737 5.737 0 0 1 4.238-.831 4.321 4.321 0 0 1 3.236 2.408z" transform="translate(-96.284 -191.887)" style="fill:#35ddd8"/>
        <path data-name="패스 1203" d="m518.517 416.426 25.145-14.456a66.362 66.362 0 0 0 11.071-7.393 67.214 67.214 0 0 0 8.333-9.471 126.074 126.074 0 0 0 8.947-13.871 172.639 172.639 0 0 0-5.8-46.572 79.171 79.171 0 0 0-3.676-11.059c5.65 6.107 8.7 14.114 11.611 21.907a20.811 20.811 0 0 1 1.125 3.687 26.636 26.636 0 0 1 .175 4.688 43.362 43.362 0 0 0 3.391 17.314 96.554 96.554 0 0 0 4.471-9.778 36.333 36.333 0 0 1 2.976-6.542c2-3.112 5.046-5.379 8.023-7.576 3.06-2.259 6.121-4.517 9.141-6.849-.891 4.413-5.064 7.231-7.972 10.67a42.344 42.344 0 0 0-5.1 8.394l-7.978 15.744a104.955 104.955 0 0 0-6.727 15.24c-1.684 5.261-2.568 10.866-5.032 15.951 4.292-3.1 9.232-6.364 14.446-5.44 2.688.476 5.089 2.042 7.779 2.515 3.586.63 7.538-.7 10.784.951 2.3 1.171 3.691 3.6 5.8 4.9-4.012 1.076-7.9-2.272-12.045-2.471-1.277-.061-2.562.181-3.829.014-2.111-.278-3.942-1.656-6.041-2.019-2.612-.451-5.229.729-7.456 2.165s-4.308 3.178-6.8 4.07c-3.2 1.144-6.892.815-9.74 2.72l-9.021 12.808a19.712 19.712 0 0 0-2.527 4.345 14.131 14.131 0 0 1-3.8 5.749c-2.98 2.628-6.067 5.141-9.158 7.65-.069 0-.139 0-.283.01a29.818 29.818 0 0 1-.976 11.824 16.272 16.272 0 0 0-8.787 3.614c-1.381 1.137-2.616 2.529-4.277 3.193a7.216 7.216 0 0 1-7.488-1.907 13.958 13.958 0 0 1-3.478-7.273c-1.858-9.229 1.241-18.734 4.773-27.446z" transform="translate(-157.304 -96.434)" style="fill:#2d3262"/>
        <path data-name="패스 1205" d="M536.327 479.523c4.075 10.266 8.172 20.608 10.247 31.457a7.956 7.956 0 0 0 1.653 4.211 7.6 7.6 0 0 0 3.718 1.709c16.258 4.118 32.517 8.236 49.051 12.65l21.679-6.188a21.4 21.4 0 0 1 5.187-1.026 2.713 2.713 0 0 0 1.164-.184 2.968 2.968 0 0 0 .985-1.129c1.676-2.529 4.813-3.542 7.581-4.785a33.056 33.056 0 0 0 9.27-6.235c.931 1.048-.325 2.583-1.46 3.4q-6.493 4.7-12.589 9.924a12.463 12.463 0 0 1-2.808 2c-2.748 1.259-5.982.311-8.966.79-4.264.686-7.764 4.25-13.5 4.588l-.405.791c.886 1.286 2.771 1.245 4.338 1.154a39.746 39.746 0 0 1 9.2.534c4.867.857 8.63.419 13.753.394a18.6 18.6 0 0 0 2.023-.193 17.848 17.848 0 0 1 2.082.225c1.107 0 1.358.837 2.045 1.7a11.541 11.541 0 0 1 2.245 10.015 8.962 8.962 0 0 1-6.68 6.408 7.927 7.927 0 0 1-5.777-1.266 15.2 15.2 0 0 0-8.687-2.643c-21.281.448-42.468-4.437-63.8-5.4a15.924 15.924 0 0 0-5.647.451c-1.142.37-2.192.984-3.326 1.381a18.662 18.662 0 0 1-4.092.776l-20.839 2.368c-5.078.576-10.349 1.133-15.2-.492.026-13.848.144-28.153 5.7-40.837 4.512-10.3 12.326-18.8 20.7-26.3z" transform="translate(-155.952 -147.378)" style="fill:#2d3262"/>
        <path data-name="패스 1207" d="M313.952 483.591c-6.331 8.444-7.749 19.453-9.453 29.868s-4.3 21.481-12.1 28.591c-3.093 2.82-6.824 4.828-10.512 6.807-2.269 1.217-4.673 2.468-7.248 2.393-2.245-.065-4.318-1.132-6.45-1.843-8.8-2.933-18.153.257-26.763 4.2a.4.4 0 0 0 .257.757 89.785 89.785 0 0 1 20.939-2.719c3.209 0 5.076.223 7.087 1.087.952.814 1.9 1.628 2.946 2.521a72.408 72.408 0 0 1-26.283 9.042c-4.181.579-8.467.8-12.431 2.251a42.256 42.256 0 0 0-8.777 4.906l-22.082 14.761c-2.294 1.534-4.833 3.774-5.289 6.242a1.274 1.274 0 0 0 1.9 1.319l23.125-13.506c6.453-3.77 13.34-7.657 20.812-7.5 3.559.077 7.044 1.083 10.6 1.225 7.782.311 15.046-3.472 22.2-6.548 12.19-5.24 25.077-8.632 37.886-12.49a18.27 18.27 0 0 1 4.5 1.789c5.025 2.331 10.665 2.874 16.18 3.386l13.238 1.228c7.921.735 15.94 1.468 23.9.536a689.439 689.439 0 0 0 63.966-26.145 11.248 11.248 0 0 0 1.137-.646c1.051-.653 1.361-.031 1.723-2 .5.27.237-1.851.419-2.577a14.731 14.731 0 0 0 .457-2.207c1.96-21.2-1.415-38.731-10.878-58.1a9.064 9.064 0 0 0-8.424-6.306c-13.774-2.017-27.786.4-41.7.139-12.446-.23-24.952-2.6-37.269-.788s-20.765 11.191-27.613 20.327z" transform="translate(-60.622 -142.284)" style="fill:#2d3262"/>
        <path data-name="패스 1208" d="M647.328 570.268s.088 3.762 1.682 5.134c0 0-4.338-2.567-8.056-3.01a283.22 283.22 0 0 1-39.4-2.833s-24.39-3.63-28.684-2.258c0 0-3.541.974-5.666 1.682 0 0 4.383-5.666 10.668-5.4 0 0 33.906 4.923 46.654 4.918z" transform="translate(-173.863 -173.238)" style="fill:#232949"/>
        <path data-name="패스 1209" d="M551.507 543.725s3.275-9.616 7.436-9.946a25.536 25.536 0 0 1 14.12-.861 56.951 56.951 0 0 1-12.7-3.187 24.8 24.8 0 0 1-2.656-8.148s1.767 2.495-6.2 22.142z" transform="translate(-169.05 -160.259)" style="fill:#232949"/>
        <path data-name="패스 1210" d="M308.694 599.331S340.742 588 343.633 588c0 0 11.509 5.784 24.67 5.666 0 0-18.55-13.174-21.737-18.25.001 0 .134 9.279-37.872 23.915z" transform="translate(-94.622 -176.867)" style="fill:#232949"/>
        <path data-name="패스 1211" d="M351.673 524.138s.741 8.109 18.564 1.113l19.394-22.763s-10.4-.521-15.343-3.659L353.24 509.8z" transform="translate(-107.796 -152.846)" style="fill:#232949"/>
        <path data-name="패스 1212" d="M426.442 573.18s15.178 1.051 21.679-3.053c0 0-7.079-8.061-7.2-17.833-.084-6.8 3.833-14.509 3.286-21.118-.648-7.818-.579-14.088.649-15.594 0 0 3.126-6.465 8.263-7.6s-2.254.915-14.052 0l-12.625 65.2" transform="translate(-130.715 -156.044)" style="fill:#232949"/>
        <path data-name="패스 1213" d="M482.273 578.043s21.955-9.354 24.788-10.858c0 0 18.324.685 26.278-2.3 0 0-21.084-.393-24.153-6.114 0 0-8.263-7.61-7.791-10.207 0 0 2.316 6.769.391 10.408 0 .002 3.414 8.867-19.513 19.071z" transform="translate(-147.828 -168.556)" style="fill:#232949"/>
        <path data-name="패스 1214" d="M644.94 554.8a5.038 5.038 0 0 0 3.544 1.7s-11.088.624-12.632 1.327c0-.005 5.865-3.883 9.088-3.027z" transform="translate(-194.904 -170.411)" style="fill:#232949"/>
        <path data-name="패스 1215" d="m500.194 518.958 2.309-7s4.4-6.121 5.958-6.688c0 0 6.892-11.112 13.389-15.091 0 0-9.173 6.024-14.574 6.732 0 0-19.476 5.822-22.663 5.788l9.739.763s2.208.094 2.7 3.058l2.969 2.963z" transform="translate(-148.545 -150.614)" style="fill:#232949"/>
        <path data-name="패스 1216" d="M542.781 476.229s7.525-5.225 8.764-6.906c0 0 5.268-8.409 6.02-10.512 0 0-5.489 5.707-8.853 5.941 0 0-14.784 1.651-25.674-1.625 0-.001 13.299 16.341 19.743 13.102z" transform="translate(-160.324 -140.969)" style="fill:#232949"/>
        <path data-name="패스 1217" d="m596.36 427.4-1.328 4.426.664.387 3.1-2.406 1.937-1.3-2.49 2.932-3.209 2.214-.664-2.158s.692-2.186.775-2.324 1.215-1.771 1.215-1.771z" transform="translate(-182.188 -131.31)" style="fill:#232949"/>
        <path data-name="패스 1218" d="M602.626 364.526s2.075 12.256 3.431 12.948l-1 3.375-1.328.94a12.424 12.424 0 0 1 .609-4.482c.225-.663-1.712-12.781-1.712-12.781z" transform="translate(-184.719 -112)" style="fill:#232949"/>
        <path data-name="패스 1219" d="M600.233 353.251a4.472 4.472 0 0 0 1.162-3.485 44.7 44.7 0 0 1 .021 7.359l.931 5.782-1.727-6.834.67-1.716z" transform="translate(-183.986 -107.462)" style="fill:#232949"/>
        <path data-name="패스 1220" d="M381.961 486.506a150.253 150.253 0 0 0 94.617-3.292c3.933-1.469 7.926-3.179 10.522-6.727a9.6 9.6 0 0 0 1.946-5.512c.065-5.569-5-8.6-9.7-10.229-11.315-3.923-23.553-3.739-35.488-3.273q-12.621.492-25.22 1.373c-11.177.782-22.694 1.9-32.577 7.3-3.99 2.18-7.852 5.349-9.069 9.806s1.594 9.554 4.969 10.554z" transform="translate(-115.469 -140.497)" style="fill:#9edbf0"/>
        <path data-name="패스 1222" d="M692.063 559.313a4.481 4.481 0 0 0-4.214 1.51 10.425 10.425 0 0 0-2.093 4.16c-.448 1.493-1.7 2.745-1.614 4.3s.646 3.789 1.77 4.869 3.77 1.205 5.21.609a6.448 6.448 0 0 0 2.809-2.967 14.307 14.307 0 0 0 1.428-3.091 10.232 10.232 0 0 0 .224-4.49 7.437 7.437 0 0 0-1.114-3.06 4.562 4.562 0 0 0-2.406-1.84z" transform="translate(-209.705 -171.815)" style="fill:#9edbf0"/>
        <path data-name="패스 1223" d="M691.115 560.683s-7.458 7.415-5.223 11.465c0 0 1.062 4.56 5.754 1.727 0 0 3.408-4.361 3.807-7.614 0 0-.4-4.426-2.3-4.471 0 0-7.126 6.02-5.356 10.048 0 0 .752 2.1 3.408-.487 0 0 3.342-5.245 2.435-6.285 0 0-2.27.243-3.393 4.2 0 0 .717-5.122 2.729-5.223 0 0 3.449-.2-.177 6.241 0 0-1.77 3.718-4.338 2.789 0 0-2.7-1.1-.752-5.462 0 0 3.364-5.317 4.56-5.826 0 0 2.081-1.261 3.187 2.036 0 0 1.032 4.824-1.948 8.234a4.6 4.6 0 0 1-4.161 3.01s-3.342.243-4.183-4.116c0 0-.354-3.519 2.944-7.791-.008.004 1.546-2.098 3.007-2.475z" transform="translate(-210.015 -172.351)" style="fill:#2d3262"/>
        <path data-name="패스 1224" d="M458.1 474.766s8.89 1.872 5.058 6.215c0 0-4.173 4.788-22.908 8.731 0 0-28.937 7.145-57.561-2.343l-22.729-15.012 7.916-19.706 25.571 1.689 36.542 5.205 28.111 15.221" transform="translate(-110.337 -139.092)" style="fill:#5ba4b5"/>
        <path data-name="패스 1225" d="M381.1 592.044c-1.1 5.009 1.5 10.549.408 15.557-3.364-.843-10.711.413-12.768 3.275a15.635 15.635 0 0 0-2.463 10.141 28.568 28.568 0 0 0 .5 3.659 6.709 6.709 0 0 0 7.792 5.285 116.2 116.2 0 0 0 15.517-3.727c6.083-2 14.684-4.567 20.3-8.693a4.354 4.354 0 0 0 1.539-4.827c-2.315-7.324-4.967-15-7.688-21.614a211.58 211.58 0 0 0-23.137.944z" transform="translate(-112.26 -181.666)" style="fill:#4246dc"/>
        <path data-name="패스 1226" d="M348.489 471.959c-.515 4.963 3.374 9.944 2.935 14.894a23.849 23.849 0 0 0-4.467-.685 25.809 25.809 0 0 0-3.257-.1 9.222 9.222 0 0 0-5.923 3.128 13.393 13.393 0 0 0-3.1 5.22 19.137 19.137 0 0 0-.917 6.963 6.977 6.977 0 0 0 7.564 6.372 60.369 60.369 0 0 0 33.076-13.098 24.827 24.827 0 0 0-7.5-22.115 5.32 5.32 0 0 0-1.01-.8 6.321 6.321 0 0 0-2.03-.6 32.21 32.21 0 0 0-7.816-.734 50.255 50.255 0 0 0-7.555 1.555z" transform="translate(-102.293 -144.534)" style="fill:#4246dc"/>
        <path data-name="패스 1227" d="M358.214 486.463s18.734 5.455 23.081 1.978l-2.4-10.476-22.847-1.824z" transform="translate(-109.138 -146.29)" style="fill:#2e38af"/>
        <path data-name="패스 1228" d="M388.124 602.382a27.049 27.049 0 0 1 .371 4.8s15.5 1.095 26.2-4.189l-1.825-5.181z" transform="translate(-118.969 -183.734)" style="fill:#2e38af"/>
        <path data-name="패스 1229" d="M388.909 616.324a19.458 19.458 0 0 1 10.659 4.519s-5.613-7.003-10.659-4.519z" transform="translate(-119.21 -189.243)" style="fill:#2e38af"/>
        <path data-name="패스 1230" d="M359.964 496.292a19.462 19.462 0 0 1 10.66 4.519s-5.614-7.002-10.66-4.519z" transform="translate(-110.337 -152.312)" style="fill:#2e38af"/>
        <g data-name="그룹 459">
            <g data-name="그룹 458" style="clip-path:url(#796hsrxaja)" transform="translate(266.578 301.877)">
                <path data-name="패스 1231" d="M385.384 449.833c6.461 8.619 16.817 14.613 27.847 17.114 5.205 1.18 11.384 1.382 14.941-2.081 2.8-2.722 3.069-7.044 1.71-10.684s-4.1-6.745-6.86-9.694a13.659 13.659 0 0 0-2.819-2.481 20.177 20.177 0 0 0-5.751-1.822c-6.664-1.624-13.263-5.462-19.876-4.13s-12.566 9.277-9.192 13.778z" transform="translate(-384.408 -435.778)" style="fill:#1fb4b0"/>
                <path data-name="패스 1232" d="M391.254 453.953a59.692 59.692 0 0 0 30.2 14.7" transform="translate(-386.506 -441.349)" style="stroke-width:.598px;stroke:#c6c6c6;stroke-miterlimit:10;fill:none"/>
            </g>
        </g>
        <g data-name="그룹 461">
            <g data-name="그룹 460" style="clip-path:url(#7g8rgasklb)" transform="translate(237.813 277.626)">
                <path data-name="패스 1234" d="M345.539 457.9c.752 2 3.314 2.48 5.443 2.706 10.209 1.085 20.571 3.489 30.61 1.245-.057 0-.114 0 .027.015a40.933 40.933 0 0 0-.542-15.821c-.869-3.719-2.237-7.744-.615-11.2 2.883-.788 5.569 1.571 7.766 3.6 6.041 5.573 13.86 10.183 22.076 9.576a72.215 72.215 0 0 0 7.045-32.446c-8.248-1.5-16.132-4.6-24.362-6.194a93.071 93.071 0 0 1-9.7-1.99c-2.992-.918-5.8-2.336-8.725-3.46a47.042 47.042 0 0 0-19.167-3.073 13.011 13.011 0 0 0-6.673 1.733 11.047 11.047 0 0 0-3.8 5.08c-2.1 5.042-2.09 10.68-1.947 16.138a305.06 305.06 0 0 0 2.561 33.6c.064.005.122.005.003.491z" transform="translate(-342.93 -400.802)" style="fill:#35ddd8"/>
                <path data-name="패스 1235" d="M354.632 464.521a332.646 332.646 0 0 1-4.057-34.058 39.838 39.838 0 0 1 .128-9.095 21.256 21.256 0 0 1 4.053-9.406 11.824 11.824 0 0 1 5.177-4.15c4.165-1.5 8.68.546 12.708 2.385a157.931 157.931 0 0 0 38.02 11.83c4.547.8 9.211 1.408 13.77.67" transform="translate(-345.213 -402.791)" style="stroke-width:.598px;stroke:#fff;stroke-miterlimit:10;fill:none"/>
                <path data-name="패스 1236" d="m364.739 469.63-1.326-30.551c-.157-3.616-.306-7.305.678-10.788s3.313-6.788 6.725-7.993c4.779-1.687 9.849 1.066 14.343 3.408a104.855 104.855 0 0 0 39.552 11.465" transform="translate(-349.173 -406.618)" style="stroke-width:.598px;stroke:#fff;stroke-miterlimit:10;fill:none"/>
                <path data-name="패스 1237" d="M376.251 473.665a145.746 145.746 0 0 1-1.545-30.734c.183-3.286.664-6.939 3.211-9.023 2.25-1.84 5.551-1.871 8.292-.9s5.084 2.783 7.476 4.434c8.048 5.553 17.328 9.549 27.063 10.462" transform="translate(-352.601 -410.479)" style="stroke-width:.598px;stroke:#fff;stroke-miterlimit:10;fill:none"/>
                <path data-name="패스 1238" d="M386.083 476.644a146.6 146.6 0 0 1-.779-22.606c.116-2.716.345-5.552 1.776-7.863s4.437-3.877 6.935-2.8a9.747 9.747 0 0 1 2.147 1.452 41.016 41.016 0 0 0 23.134 8.818" transform="translate(-355.877 -413.745)" style="stroke-width:.598px;stroke:#fff;stroke-miterlimit:10;fill:none"/>
            </g>
        </g>
        <g data-name="그룹 463">
            <g data-name="그룹 462" style="clip-path:url(#414skequvc)" transform="translate(253.51 300.963)">
                <path data-name="패스 1240" d="M459.466 446.355c1.9 8.121-4.182 16.492-10.376 22.077s-13.858 9.259-20.526 14.268c-3.141 2.36-6.156 5.15-7.616 8.8a25.818 25.818 0 0 0-1.35 8.576c-.619 14.811-.889 29.637-1.053 44.371-9.329 6.681-21.242 8.3-32.629 9.711-6.9.854-14.376 1.6-19.982-1.734-1.221-12.848.79-25.766 3.02-38.478.745-4.25 1.535-8.553 3.388-12.449 4.053-8.519 10.8-15.982 17.075-23.024 5.6-6.281 11.243-11.978 13.286-20.322 1.1-5.27 2.485-11 6.77-14.262a21.987 21.987 0 0 1 6.582-3.034c11.818-3.892 24.391-7.218 36.586-4.752 2.336.472 4.9 1.38 5.888 3.551.922 2.033.393 4.376.937 6.701z" transform="translate(-365.563 -434.866)" style="fill:#35ddd8"/>
                <path data-name="패스 1241" d="M372.579 554.288c-1.218-12.66.321-25.43 2.6-37.943a61.279 61.279 0 0 1 3.662-13.554c4.089-9.407 12.137-16.378 19.448-23.57 14.313-14.079 26.912-30.73 32.038-50.142" transform="translate(-367.583 -432.974)" style="stroke:#fff;stroke-width:.598px;stroke-miterlimit:10;fill:none"/>
                <path data-name="패스 1242" d="M443.882 429.275c-.033 8.028-4.31 15.349-8.514 22.188-3.627 5.9-7.332 11.817-12.1 16.838-5.559 5.85-12.434 10.343-17.883 16.3-8.39 9.166-12.92 21.333-14.86 33.606s-1.472 24.784-1 37.2" transform="translate(-372.78 -433.034)" style="stroke-width:.598px;stroke:#fff;stroke-miterlimit:10;fill:none"/>
                <path data-name="패스 1243" d="M457.937 428.645a118.9 118.9 0 0 1-33.07 54.851c-3.633 3.41-7.5 6.613-10.6 10.513-8.394 10.556-10.175 24.906-9.809 38.387a150.259 150.259 0 0 0 2.182 21.751" transform="translate(-377.471 -432.841)" style="stroke-width:.598px;stroke:#fff;stroke-miterlimit:10;fill:none"/>
                <path data-name="패스 1244" d="M470.007 432.961a38.3 38.3 0 0 1-3.342 20.72c-8.752 18.627-31.29 28.009-39.394 46.928-4.182 9.764-3.914 20.778-3.561 31.394.238 7.143.483 14.29 1.073 21.412" transform="translate(-383.331 -434.164)" style="stroke-width:.598px;stroke:#fff;stroke-miterlimit:10;fill:none"/>
                <path data-name="패스 1245" d="M436.172 540.045a73.529 73.529 0 0 1 .87-10.005c1.086-6.619 3.469-13.171 7.838-18.261" transform="translate(-387.206 -458.323)" style="stroke-width:.598px;stroke:#fff;stroke-miterlimit:10;fill:none"/>
                <path data-name="패스 1246" d="m436.67 586.759-.47-24.149c-.065-3.354-.13-6.718-.043-10.071" transform="translate(-387.188 -470.817)" style="stroke-width:.598px;stroke:#fff;stroke-miterlimit:10;fill:none"/>
            </g>
        </g>
        <path data-name="패스 1248" d="M437.756 355.345c-4.49-1.631-9.648-.291-13.571 2.434s-6.812 6.675-9.417 10.679a155.432 155.432 0 0 0-15.745 31.972 100.492 100.492 0 0 0 40.114 26.085 38.836 38.836 0 0 0 12.535 2.58c5.571.017 11-1.908 15.9-4.56 4.815-2.606 9.762-7.069 9.523-12.536l-1.985-25.5c-.378-4.854-.784-9.823-2.812-14.249-3.212-7.011-10.148-11.733-17.473-14.146-5.716-1.887-12.136-.967-17.069-2.759z" transform="translate(-122.31 -108.997)" style="fill:#4246dc"/>
        <path data-name="패스 1249" d="M497.215 433.47a15.577 15.577 0 0 1 .252 4.178 14.217 14.217 0 0 1-1.006 2.983c-1.256 2.7-4.7 10.5-27.55 13.892l-3.562-8.815s6.012.17 25.462-6.022c2.058-.656 3.389-1.435 6.404-6.216z" transform="translate(-142.64 -133.185)" style="fill:#353da5"/>
        <path data-name="패스 1250" d="M470.415 394.7s-4.456 15.7-4.22 25.043l-25.88-4.56 5.666-5.256s6.2-.774 8.112-1.141c2.464-.472 8.031-2.033 10.349-2.514a1.872 1.872 0 0 0 1.326-1.057c1.061-2.315 3.35-8.746 4.647-10.515z" transform="translate(-134.967 -121.276)" style="fill:#353da5"/>
        <path data-name="패스 1251" d="M435.173 380.247a100.95 100.95 0 0 0-1.43 20.819l-4.485-4.354s3.48-10.69 5.915-16.465z" transform="translate(-131.578 -116.832)" style="fill:#353da5"/>
        <path data-name="패스 1252" d="M275.174 238.2a236.133 236.133 0 0 0 17.335 43.872c.043-.424.624-.481 1.049-.492a6.962 6.962 0 0 0 2.972-.987 59.133 59.133 0 0 0 13.024-9.235 10.818 10.818 0 0 0 3.346-4.758 253.2 253.2 0 0 0-37.749-27.485c-.024-.03-.045-.064.023-.915z" transform="translate(-84.333 -73.196)" style="fill:#fff"/>
        <path data-name="패스 1253" d="M190.915 166.034a76.777 76.777 0 0 1 11.31 7.086 8.324 8.324 0 0 1-3.118 3.382 16.542 16.542 0 0 1-4.234 1.81c-1.457-4.028-2.761-8.112-3.845-12.257-.013.034-.019.068-.113-.021z"/>
        <path data-name="패스 1254" d="M296.891 290.335A1124.685 1124.685 0 0 0 421.6 431.906a19.763 19.763 0 0 0 17.7-17.106c-41.016-47.381-82.033-94.762-123.52-141.407-5.175.966-10.579 2.034-14.694 5.317s-6.002 9.19-4.195 11.625z" transform="translate(-90.794 -84.084)" style="fill:#9f83e5"/>
        <path data-name="패스 1255" d="M297.311 287.986c-1.26 2.646-1.505 5.359-.421 6.822A1124.69 1124.69 0 0 0 421.6 436.38a17.827 17.827 0 0 0 4.641-.976z" transform="translate(-90.794 -88.564)" style="fill:#816bc6"/>
        <path data-name="패스 1256" d="M466.315 411.057c-15.606 3.984-31.672 7.4-48.033 7.646h.181a26.515 26.515 0 0 0 8.815 19.308c15.987 1.068 33.1 1.951 47.042-4.373a10.052 10.052 0 0 0 4.307-3.066 7.9 7.9 0 0 0 .977-4.372l.156-6.272c.073-2.973-.075-6.364-2.908-8.3-3.352-2.285-8.379-1.122-10.537-.571z" transform="translate(-128.213 -126.061)" style="fill:#4246dc"/>
        <ellipse data-name="타원 22" cx="18.242" cy="22.538" rx="18.242" ry="22.538" transform="translate(302.417 186.721)"/>
        <ellipse data-name="타원 23" cx="19.417" cy="21.845" rx="19.417" ry="21.845" transform="translate(310.054 187.895)"/>
        <path data-name="패스 1257" d="M402.443 420.875c-2.37 2.938-2.032 7.225-.887 10.821a18.515 18.515 0 0 0 4.659 7.974 10.528 10.528 0 0 0 8.511 3 13.712 13.712 0 0 0 5.423-2.34 11.539 11.539 0 0 0 3.95-3.825 9.994 9.994 0 0 0 .884-6.061c-.54-4.369-2.948-8.664-6.869-10.666a20.5 20.5 0 0 0-5.7-1.666 13.255 13.255 0 0 0-3.9-.3 9.284 9.284 0 0 0-6.071 3.063z" transform="translate(-122.816 -128.358)" style="fill:#feabdf"/>
        <path data-name="패스 1258" d="M368.806 377.63a11.379 11.379 0 0 0-3.322 8.37 19.512 19.512 0 0 0 2.478 8.837 20.8 20.8 0 0 0 5.106 6.538 7.166 7.166 0 0 0 3.037 1.6 7.9 7.9 0 0 0 2.836-.073 12.493 12.493 0 0 0 5.425-2.024c3.134-2.306 4.211-6.73 3.286-10.51s-3.534-6.958-6.549-9.419a16.434 16.434 0 0 0-6.011-3.331c-2.23-.594-5.099-1.096-6.286.012z" transform="translate(-112.029 -115.829)" style="fill:#feabdf"/>
        <path data-name="패스 1259" d="M455.734 334.59c-.094 5.1-.4 10.19-1 15.434a14.929 14.929 0 0 0 14.526 1.327 2 2 0 0 0 .959-.732 2.128 2.128 0 0 0 .189-1.045l.205-19.956-7.073-.383c-1.956-.105-4.022-.189-5.759.716s-2.922 3.182-2.047 4.639z" transform="translate(-139.387 -101.141)" style="fill:#feabdf"/>
        <path data-name="패스 1260" d="M455.607 341.05s7.6 2.718 15.232-9.562v-10.156h-13.778z" transform="translate(-139.654 -98.73)" style="fill:#dd8ec3"/>
        <path data-name="패스 1261" d="M440.514 293.673c-2.192 6.848-4.369 14.1-2.828 21.121a12.464 12.464 0 0 0 2.282 5.177 11.99 11.99 0 0 0 2.719 2.406 18.49 18.49 0 0 0 26.464-6.4 8.741 8.741 0 0 0 6.375-3.506c1.121-1.531 1.623-3.87.282-5.212a5.181 5.181 0 0 0-5.861-.965c-.231-3.279-2.265-5.06-4.71-7.259a29.725 29.725 0 0 0-8.471-4.96 27.828 27.828 0 0 0-8.156-2.353c-2.829-.263-6.721-.717-8.111 1.931a.36.36 0 0 0 .579.115c.157-.183.046-.517-.564-.095z" transform="translate(-134.002 -89.574)" style="fill:#feabdf"/>
        <g data-name="그룹 465">
            <g data-name="그룹 464" style="clip-path:url(#62ny153mqd)" transform="translate(303.165 201.469)">
                <ellipse data-name="타원 24" cx="12.432" cy="10.952" rx="12.432" ry="10.952" transform="rotate(-59.366 -3.465 8.222)"/>
                <ellipse data-name="타원 25" cx="14.858" cy="15.276" rx="14.858" ry="15.276" transform="rotate(-4.44 -168.196 -183.83)"/>
            </g>
        </g>
        <path data-name="패스 1263" d="M484.96 315.613s2.833-2.024 3.718 0c0 0 1.6 3.572-4.956 5.52a10.73 10.73 0 0 0 1.238-5.52z" transform="translate(-148.272 -96.69)" style="fill:#dd8ec3"/>
        <g data-name="그룹 466">
            <path data-name="패스 1264" d="M247.39 80.545a856.127 856.127 0 0 1-91.6 20.6c-1.553-2.982-2.329-5.589-3.7-8.214A28.193 28.193 0 0 1 150.526 89c-1.309-4.024-2.619-7.354-3.659-10.983q47.15-10.145 93.538-23.473 2.98 13.267 7.257 26.249c-.039.02-.079.042-.272-.248z" transform="translate(-45.018 -16.719)" style="fill:#9f83e5"/>
            <path data-name="패스 1265" d="M252.392 71.353a855.958 855.958 0 0 1-91.6 20.6c-1.553-2.983-2.329-5.589-3.7-8.214a28.235 28.235 0 0 1-1.564-3.935c-1.309-4.024-2.619-7.354-3.659-10.983q47.15-10.146 93.538-23.473 2.979 13.268 7.257 26.25c-.039.023-.079.046-.272-.245z" transform="translate(-46.551 -13.901)" style="fill:#4246dc"/>
            <path data-name="패스 1266" d="m174.669 79.414 2.642 3.1a1.312 1.312 0 0 0 1.135.455l4.052-.42a1.314 1.314 0 0 1 1.254 1.994l-2.132 3.471a1.316 1.316 0 0 0-.082 1.22l1.651 3.724a1.314 1.314 0 0 1-1.509 1.809l-3.96-.955a1.314 1.314 0 0 0-1.186.3l-3.034 2.72a1.314 1.314 0 0 1-2.187-.876L171 91.9a1.311 1.311 0 0 0-.651-1.035l-3.524-2.043a1.313 1.313 0 0 1 .157-2.35l3.765-1.555a1.314 1.314 0 0 0 .783-.939l.854-3.983a1.314 1.314 0 0 1 2.285-.581z" transform="translate(-50.935 -24.201)" style="fill:#35ddd8"/>
            <path data-name="패스 1267" d="m204.34 72.96 2.642 3.1a1.314 1.314 0 0 0 1.135.455l4.052-.42a1.314 1.314 0 0 1 1.254 1.994l-2.132 3.471a1.313 1.313 0 0 0-.081 1.22l1.65 3.724a1.314 1.314 0 0 1-1.509 1.809l-3.96-.955a1.313 1.313 0 0 0-1.185.3l-3.032 2.721a1.314 1.314 0 0 1-2.187-.876l-.315-4.061a1.314 1.314 0 0 0-.65-1.035l-3.522-2.042a1.314 1.314 0 0 1 .157-2.351l3.765-1.555a1.313 1.313 0 0 0 .783-.939l.854-3.983a1.314 1.314 0 0 1 2.281-.577z" transform="translate(-60.03 -22.223)" style="fill:#35ddd8"/>
            <path data-name="패스 1268" d="m233.041 66.046 2.642 3.1a1.314 1.314 0 0 0 1.135.455l4.052-.42a1.314 1.314 0 0 1 1.255 1.994l-2.132 3.471a1.313 1.313 0 0 0-.081 1.22l1.65 3.724a1.313 1.313 0 0 1-1.509 1.809l-3.96-.955a1.313 1.313 0 0 0-1.185.3l-3.032 2.721a1.314 1.314 0 0 1-2.187-.876l-.315-4.061a1.315 1.315 0 0 0-.651-1.035L225.2 75.45a1.313 1.313 0 0 1 .157-2.35l3.766-1.555a1.314 1.314 0 0 0 .783-.939l.853-3.983a1.314 1.314 0 0 1 2.282-.577z" transform="translate(-68.827 -20.103)" style="fill:#35ddd8"/>
            <path data-name="패스 1269" d="m260.871 58.131 2.642 3.1a1.314 1.314 0 0 0 1.135.455l4.052-.42a1.314 1.314 0 0 1 1.255 1.994l-2.132 3.471a1.313 1.313 0 0 0-.081 1.22l1.65 3.724a1.314 1.314 0 0 1-1.509 1.809l-3.96-.955a1.315 1.315 0 0 0-1.185.3l-3.032 2.721a1.314 1.314 0 0 1-2.187-.876l-.315-4.061a1.312 1.312 0 0 0-.651-1.035l-3.525-2.043a1.313 1.313 0 0 1 .157-2.35l3.765-1.555a1.311 1.311 0 0 0 .783-.939l.854-3.983a1.314 1.314 0 0 1 2.284-.577z" transform="translate(-77.358 -17.677)" style="fill:#35ddd8"/>
        </g>
        <path data-name="패스 1270" d="M36.277 33.054a106.4 106.4 0 0 0 16.842-3.362" transform="translate(-11.12 -9.101)" style="stroke-width:.299px;stroke:#000;stroke-miterlimit:10;fill:none"/>
        <path data-name="패스 1271" d="m35.614 46.592 48.638-7.037" transform="translate(-10.917 -12.125)" style="stroke-width:.299px;stroke:#000;stroke-miterlimit:10;fill:none"/>
        <path data-name="패스 1275" d="M57.065 116.034a85.576 85.576 0 0 0 21.247-4.109" transform="translate(-17.492 -34.308)" style="stroke-width:.299px;stroke:#000;stroke-miterlimit:10;fill:none"/>
        <path data-name="패스 1276" d="m61.151 128.627 7.555-1.409" transform="translate(-18.744 -38.995)" style="stroke-width:.299px;stroke:#000;stroke-miterlimit:10;fill:none"/>
        <path data-name="패스 1277" d="m84.277 150.615-.564 3.764" transform="translate(-25.66 -46.273)" style="stroke-width:.299px;stroke:#000;stroke-miterlimit:10;fill:none"/>
        <path data-name="패스 1278" d="M141.283 206.762c2.63-.832 5.26-1.665 7.881-2.526 17.876-5.876 35.276-13.1 52.656-20.311" transform="translate(-43.307 -56.512)" style="stroke-width:.299px;stroke:#000;stroke-miterlimit:10;fill:none"/>
        <path data-name="패스 1279" d="M225.039 182.746a2.472 2.472 0 0 1 2.329.873 1.523 1.523 0 0 1-.506 2.219" transform="translate(-68.98 -56.138)" style="stroke-width:.299px;stroke:#000;stroke-miterlimit:10;fill:none"/>
        <path data-name="패스 1280" d="M130.76 172.224a20.06 20.06 0 0 1-1.991-7.827A6.076 6.076 0 0 1 129.9 160a5.306 5.306 0 0 1 4.537-1.359c3.862.406 7.2 3 11.033 3.609a4.715 4.715 0 0 0 2.617-.192c1.79-.783 2.349-3.008 2.648-4.938a152.244 152.244 0 0 0 1.764-25.926" transform="translate(-39.466 -40.315)" style="stroke-width:.299px;stroke:#000;stroke-miterlimit:10;fill:none"/>
        <path data-name="패스 1281" d="M132.479 171.716a3.026 3.026 0 0 0 .239 1.649" transform="translate(-40.599 -52.755)" style="stroke-width:.299px;stroke:#000;stroke-miterlimit:10;fill:none"/>
        <path data-name="패스 1282" d="m136.911 178.183.472.945" transform="translate(-41.966 -54.742)" style="stroke-width:.299px;stroke:#000;stroke-miterlimit:10;fill:none"/>
        <path data-name="패스 1283" d="m142.7 184.992.472.945" transform="translate(-43.74 -56.834)" style="stroke-width:.299px;stroke:#000;stroke-miterlimit:10;fill:none"/>
        <path data-name="패스 1284" d="m149.182 193.454.71.23" transform="translate(-45.728 -59.433)" style="stroke-width:.299px;stroke:#000;stroke-miterlimit:10;fill:none"/>
        <path data-name="패스 1285" d="m154.975 198.593.707.945" transform="translate(-47.504 -61.012)" style="stroke-width:.299px;stroke:#000;stroke-miterlimit:10;fill:none"/>
        <path data-name="패스 1286" d="m161.469 204.364.482.7" transform="translate(-49.494 -62.785)" style="stroke-width:.299px;stroke:#000;stroke-miterlimit:10;fill:none"/>
        <path data-name="패스 1287" d="m164.845 207.763.47.24" transform="translate(-50.529 -63.829)" style="stroke-width:.299px;stroke:#000;stroke-miterlimit:10;fill:none"/>
        <path data-name="패스 1288" d="M164.145 131.2a5.572 5.572 0 0 0 .945 2.124" transform="translate(-50.314 -40.217)" style="stroke-width:.299px;stroke:#000;stroke-miterlimit:10;fill:none"/>
        <path data-name="패스 1289" d="m170.953 143.8.709.709" transform="translate(-52.401 -44.179)" style="stroke-width:.299px;stroke:#000;stroke-miterlimit:10;fill:none"/>
        <path data-name="패스 1290" d="m177.5 151.945.237.708" transform="translate(-54.407 -46.681)" style="stroke-width:.299px;stroke:#000;stroke-miterlimit:10;fill:none"/>
        <path data-name="패스 1291" d="m185.592 159.8.472 1.181" transform="translate(-56.888 -49.094)" style="stroke-width:.299px;stroke:#000;stroke-miterlimit:10;fill:none"/>
        <path data-name="패스 1292" d="M192.067 166.936a2.764 2.764 0 0 1 1.168 1.193" transform="translate(-58.873 -51.287)" style="stroke-width:.299px;stroke:#000;stroke-miterlimit:10;fill:none"/>
        <path data-name="패스 1293" d="m198.528 174.779.945.708" transform="translate(-60.854 -53.696)" style="stroke-width:.299px;stroke:#000;stroke-miterlimit:10;fill:none"/>
        <path data-name="패스 1294" d="m204.656 183.63.472.236" transform="translate(-62.732 -56.415)" style="stroke-width:.299px;stroke:#000;stroke-miterlimit:10;fill:none"/>
        <path data-name="패스 1295" d="M211.124 189.083a1 1 0 0 0 .215.948" transform="translate(-64.702 -58.091)" style="stroke-width:.299px;stroke:#000;stroke-miterlimit:10;fill:none"/>
        <path data-name="패스 1296" d="m162.783 179.2.236.236" transform="translate(-49.897 -55.056)" style="stroke-width:.299px;stroke:#000;stroke-miterlimit:10;fill:none"/>
        <path data-name="패스 1297" d="M169.251 185.673v.236" transform="translate(-51.879 -57.043)" style="stroke-width:.299px;stroke:#000;stroke-miterlimit:10;fill:none"/>
        <path data-name="패스 1298" d="m175.728 191.107.711.468" transform="translate(-53.865 -58.712)" style="stroke-width:.299px;stroke:#000;stroke-miterlimit:10;fill:none"/>
        <path data-name="패스 1299" d="m182.2 197.234.711.469" transform="translate(-55.847 -60.595)" style="stroke-width:.299px;stroke:#000;stroke-miterlimit:10;fill:none"/>
        <path data-name="패스 1300" d="M71.875 166.783a2.011 2.011 0 0 1 .943 3.863" transform="translate(-22.031 -51.238)" style="stroke-width:.299px;stroke:#000;stroke-miterlimit:10;fill:none"/>
        <path data-name="패스 1301" d="M76.691 164.523a4.131 4.131 0 0 0 .265 3.152 2.008 2.008 0 0 0 2.788.7" transform="translate(-23.451 -50.546)" style="stroke-width:.299px;stroke:#000;stroke-miterlimit:10;fill:none"/>
        <path data-name="패스 1302" d="M219.746 194.466a3.084 3.084 0 0 0 3.25 1.572" transform="translate(-67.357 -59.745)" style="stroke-width:.299px;stroke:#000;stroke-miterlimit:10;fill:none"/>
        <path data-name="패스 1303" d="m223.321 192.208 1.28 2.95a4.5 4.5 0 0 1 .515 1.956 1.539 1.539 0 0 1-1.148 1.494c-.8.121-1.445-.6-1.926-1.249" transform="translate(-68.061 -59.052)" style="stroke-width:.299px;stroke:#000;stroke-miterlimit:10;fill:none"/>
        <path data-name="패스 1304" d="M240.932 244.381a14.064 14.064 0 0 0 9.166 2.382 27.854 27.854 0 0 0 3.91-.743c2.568-.616 5.215-1.269 7.329-2.852s3.57-4.358 2.807-6.886" transform="translate(-73.851 -72.594)" style="stroke-width:.299px;stroke:#000;stroke-miterlimit:10;fill:none"/>
        <path data-name="패스 1305" d="M268.821 245.1a6.825 6.825 0 0 1 1.631 2.354 4.681 4.681 0 0 0 3.6 2.39 3.093 3.093 0 0 0 3.236-2.486c.164-1.41-.838-2.661-1.779-3.725l-2.772-3.138" transform="translate(-82.4 -73.888)" style="stroke-width:.299px;stroke:#000;stroke-miterlimit:10;fill:none"/>
        <path data-name="패스 1306" d="M271.928 244.721a8.536 8.536 0 0 0 4.911 4.786" transform="translate(-83.352 -75.185)" style="stroke-width:.299px;stroke:#000;stroke-miterlimit:10;fill:none"/>
        <path data-name="패스 1307" d="M242.409 232.135a5.23 5.23 0 0 0 1.577 2.425c.137.119.322.237.49.166s.211-.29.218-.474a5 5 0 0 0-.265-1.819c-.153-.445-.442-.924-.911-.981s-.859.681-.439.895" transform="translate(-74.304 -71.107)" style="stroke-width:.299px;stroke:#000;stroke-miterlimit:10;fill:none"/>
        <path data-name="패스 1308" d="M259.233 226.539a4.3 4.3 0 0 1 .577 1.5 1.919 1.919 0 0 0 .892 1.287c.49.225 1.219-.105 1.173-.642a1.205 1.205 0 0 0-.271-.57l-1.454-2.03" transform="translate(-79.461 -69.458)" style="stroke-width:.299px;stroke:#000;stroke-miterlimit:10;fill:none"/>
        <path data-name="패스 1309" d="M256.526 238.091a1.763 1.763 0 0 1 1.474-1.916 5.122 5.122 0 0 1 2.636.381" transform="translate(-78.621 -72.54)" style="stroke-width:.299px;stroke:#000;stroke-miterlimit:10;fill:none"/>
        <g data-name="그룹 468">
            <path data-name="패스 1310" d="m352.5 208.674.667 13.706" transform="translate(-108.049 -64.113)" style="stroke-width:.299px;stroke:#000;stroke-miterlimit:10;fill:none"/>
            <g data-name="그룹 467">
                <path data-name="패스 1311" d="M350.512 211.639a7.939 7.939 0 0 1 5.039-2.519 1.4 1.4 0 0 1 1.78 1.517c.287 2.884-3.917 6.236-6.309 7.873 2.414-1.666 8.229-2.82 11.151-2.56a1.741 1.741 0 0 1 1.274.51c.51.663-.058 1.6-.647 2.193-2.4 2.411-9.4 5.458-12.736 6.123" transform="translate(-107.303 -64.244)" style="stroke-width:.598px;stroke:#000;stroke-miterlimit:10;fill:none"/>
                <path data-name="패스 1312" d="M383.357 200.586a50.368 50.368 0 0 0-7.456 5.61c-.693.63-1.431 1.532-1.077 2.4a1.84 1.84 0 0 0 .8.827c1.494.9 3.377.757 5.106.518a74.074 74.074 0 0 0 7.72-1.485" transform="translate(-114.864 -61.634)" style="stroke-width:.598px;stroke:#000;stroke-miterlimit:10;fill:none"/>
                <path data-name="패스 1313" d="m323.3 236.937 3.721-16.91a35 35 0 0 1 8.9 10.831" transform="translate(-99.099 -67.593)" style="stroke-width:.299px;stroke:#000;stroke-miterlimit:10;fill:none"/>
                <path data-name="패스 1314" d="M323.209 233.942a20.669 20.669 0 0 0 9.219-3.384" transform="translate(-99.071 -70.821)" style="stroke-width:.598px;stroke:#000;stroke-miterlimit:10;fill:none"/>
            </g>
        </g>
        <path data-name="패스 1315" d="M250.243 284.757a4.912 4.912 0 0 0-.748 2.548c.074.894.856 1.792 1.741 1.641a1.88 1.88 0 0 0 1.318-1.4" transform="translate(-76.473 -87.485)" style="stroke-width:.299px;stroke:#000;stroke-miterlimit:10;fill:none"/>
        <path data-name="패스 1316" d="M256.752 292.213a23.515 23.515 0 0 0 9.7 5.107" transform="translate(-78.701 -89.776)" style="stroke-width:.299px;stroke:#000;stroke-miterlimit:10;fill:none"/>
        <path data-name="패스 1317" d="M277.4 300.507a1.973 1.973 0 0 0 1.247 3.574 2.007 2.007 0 0 0 1.847-1.913 1.936 1.936 0 0 0-1.849-1.881" transform="translate(-84.778 -92.256)" style="stroke-width:.299px;stroke:#000;stroke-miterlimit:10;fill:none"/>
        <path data-name="패스 1318" d="M281.671 291.963c2.284-2.39 2.568-6 2.727-9.3" transform="translate(-86.339 -86.843)" style="stroke-width:.299px;stroke:#000;stroke-miterlimit:10;fill:none"/>
        <path data-name="패스 1319" d="M284.485 274.046a1.781 1.781 0 1 0 .271 3.516" transform="translate(-86.621 -84.193)" style="stroke-width:.299px;stroke:#000;stroke-miterlimit:10;fill:none"/>
        <path data-name="패스 1320" d="m270.016 307.947-11.642 7.2" transform="translate(-79.198 -94.611)" style="stroke-width:.299px;stroke:#000;stroke-miterlimit:10;fill:none"/>
        <path data-name="패스 1321" d="m248.6 321.152 1.159 3.077" transform="translate(-76.201 -98.666)" style="stroke-width:.299px;stroke:#000;stroke-miterlimit:10;fill:none"/>
        <path data-name="패스 1322" d="m250.273 323.023 1.18-1.18" transform="translate(-76.715 -98.878)" style="stroke-width:.299px;stroke:#000;stroke-miterlimit:10;fill:none"/>
        <path data-name="패스 1323" d="M251.8 319.455a10.627 10.627 0 0 0 .554 3.086" transform="translate(-77.182 -98.145)" style="stroke-width:.299px;stroke:#000;stroke-miterlimit:10;fill:none"/>
        <path data-name="패스 1324" d="M283.051 307.15a113.1 113.1 0 0 1 5.536 11.16" transform="translate(-86.762 -94.368)" style="stroke-width:.299px;stroke:#000;stroke-miterlimit:10;fill:none"/>
        <path data-name="패스 1325" d="M292.256 327.37c-.819.25-.8 1.552-.132 2.088a3.377 3.377 0 0 0 2.465.431" transform="translate(-89.392 -100.576)" style="stroke-width:.299px;stroke:#000;stroke-miterlimit:10;fill:none"/>
        <path data-name="패스 1326" d="M296.238 325.068a32.017 32.017 0 0 0 11.332-6.62" transform="translate(-90.804 -97.837)" style="stroke-width:.299px;stroke:#000;stroke-miterlimit:10;fill:none"/>
        <path data-name="패스 1327" d="M244.019 293.061a21.871 21.871 0 0 1-4.689 5.282" transform="translate(-73.36 -90.037)" style="stroke-width:.299px;stroke:#000;stroke-miterlimit:10;fill:none"/>
        <path data-name="패스 1328" d="M230.835 300.644c-.891 0-1.117 1.432-.443 2.015a1.6 1.6 0 0 0 .725.356 1.577 1.577 0 1 0-.469-2.917" transform="translate(-70.5 -92.143)" style="stroke-width:.299px;stroke:#000;stroke-miterlimit:10;fill:none"/>
        <path data-name="패스 1329" d="M36.281 36.374c5.871-.139 12.019-.351 17.118-3.266" transform="translate(-11.121 -10.148)" style="stroke-width:.299px;stroke:#fff;stroke-miterlimit:10;fill:none"/>
        <path data-name="패스 1330" d="M34.98 50.952a237.574 237.574 0 0 0 34.314-6.032 44.725 44.725 0 0 1 8.4-1.611" transform="translate(-10.722 -13.275)" style="stroke-width:.299px;stroke:#fff;stroke-miterlimit:10;fill:none"/>
        <path data-name="패스 1331" d="M42.114 66.837C55.192 67.882 68 62.976 81.1 62.186c6.143-.37 12.73.062 17.967-3.171" transform="translate(-12.909 -18.09)" style="stroke-width:.299px;stroke:#fff;stroke-miterlimit:10;fill:none"/>
        <path data-name="패스 1332" d="M58.1 118.564a78.982 78.982 0 0 0 14-1.1 6.957 6.957 0 0 0 4.168-1.764" transform="translate(-17.809 -35.466)" style="stroke-width:.299px;stroke:#fff;stroke-miterlimit:10;fill:none"/>
        <path data-name="패스 1333" d="m61.84 131.756 7.306-2.165" transform="translate(-18.955 -39.723)" style="stroke-width:.299px;stroke:#fff;stroke-miterlimit:10;fill:none"/>
        <path data-name="패스 1334" d="M89.769 152.87c5.054 9.134 12.108 16.976 19.1 24.729 5.8 6.437 11.917 13.092 20 16.219" transform="translate(-27.516 -46.975)" style="stroke-width:.299px;stroke:#fff;stroke-miterlimit:10;fill:none"/>
        <path data-name="패스 1335" d="M142.056 208.292c15.367-2.727 29.848-8.987 44.166-15.2 4.616-2 9.348-4.081 12.916-7.628" transform="translate(-43.544 -56.986)" style="stroke-width:.299px;stroke:#fff;stroke-miterlimit:10;fill:none"/>
        <path data-name="패스 1336" d="m133.127 171.748-.464-8.243c-.055-.981-.024-2.147.793-2.693a2.092 2.092 0 0 1 2.35.292 14.956 14.956 0 0 1 1.708 1.859 7.165 7.165 0 0 0 9.846.266c2.331-2.257 2.777-5.8 2.815-9.047.091-7.9-1.39-16.058 1.164-23.532" transform="translate(-40.659 -40.147)" style="stroke-width:.299px;stroke:#fff;stroke-miterlimit:10;fill:none"/>
        <path data-name="패스 1337" d="M73.935 175.114a4.224 4.224 0 0 0 3.987-1.889" transform="translate(-22.663 -53.219)" style="stroke-width:.299px;stroke:#fff;stroke-miterlimit:10;fill:none"/>
        <path data-name="패스 1338" d="m223.389 204.712 4.515-2.786" transform="translate(-68.474 -62.037)" style="stroke-width:.299px;stroke:#fff;stroke-miterlimit:10;fill:none"/>
        <path data-name="패스 1339" d="M342.909 258.84a3.36 3.36 0 0 0-1.407 2.9.885.885 0 0 0 .159.52 1.029 1.029 0 0 0 .608.282 4.4 4.4 0 0 0 2.3.076 1.515 1.515 0 0 0 1.074-1.788 1.822 1.822 0 0 0-1.793-.935" transform="translate(-104.677 -79.523)" style="stroke-width:.299px;stroke:#fff;stroke-miterlimit:10;fill:none"/>
        <path data-name="패스 1340" d="M343.194 264.991q-.174 4.613-.725 9.2" transform="translate(-104.975 -81.414)" style="stroke-width:.299px;stroke:#fff;stroke-miterlimit:10;fill:none"/>
        <path data-name="패스 1341" d="m339.2 267.227 1.9 2.206a1.107 1.107 0 0 0 .535.408c.351.085.68-.18.945-.426l3.363-3.137" transform="translate(-103.974 -81.808)" style="stroke-width:.299px;stroke:#fff;stroke-miterlimit:10;fill:none"/>
        <path data-name="패스 1342" d="M340.162 279.95a2.541 2.541 0 0 0-.681 1.667" transform="translate(-104.059 -86.007)" style="stroke-width:.299px;stroke:#fff;stroke-miterlimit:10;fill:none"/>
        <path data-name="패스 1343" d="m342.575 278.9 2.092 2.156" transform="translate(-105.007 -85.686)" style="stroke-width:.299px;stroke:#fff;stroke-miterlimit:10;fill:none"/>
        <path data-name="패스 1344" d="M257.537 239.928a4.032 4.032 0 0 1 1.1-1.815 1.386 1.386 0 0 1 1.921.1" transform="translate(-78.941 -73.051)" style="stroke-width:.299px;stroke:#fff;stroke-miterlimit:10;fill:none"/>
        <path data-name="패스 1345" d="M239.025 301.908q2.857-3.549 5.4-7.336" transform="translate(-73.267 -90.502)" style="stroke-width:.299px;stroke:#fff;stroke-miterlimit:10;fill:none"/>
        <path data-name="패스 1346" d="M255.09 294.473a21.759 21.759 0 0 0 4.514 3.718 9.129 9.129 0 0 0 5.612 1.316" transform="translate(-78.191 -90.471)" style="stroke-width:.299px;stroke:#fff;stroke-miterlimit:10;fill:none"/>
        <path data-name="패스 1347" d="M256.742 317.186a63.711 63.711 0 0 0 11.878-7.462" transform="translate(-78.698 -95.157)" style="stroke-width:.299px;stroke:#fff;stroke-miterlimit:10;fill:none"/>
        <path data-name="패스 1348" d="M285.326 308.576a33.7 33.7 0 0 1 6.116 9.214" transform="translate(-87.459 -94.805)" style="stroke-width:.299px;stroke:#fff;stroke-miterlimit:10;fill:none"/>
        <path data-name="패스 1349" d="M296.891 327.349a24.372 24.372 0 0 0 12.62-5.69" transform="translate(-91.004 -98.823)" style="stroke-width:.299px;stroke:#fff;stroke-miterlimit:10;fill:none"/>
        <path data-name="패스 1350" d="M285.114 290.99a30.971 30.971 0 0 0 2.886-8.325" transform="translate(-87.394 -86.844)" style="stroke-width:.299px;stroke:#fff;stroke-miterlimit:10;fill:none"/>
        <path data-name="패스 1351" d="M220.825 359.652q28.621-10.9 58.217-18.96" transform="translate(-67.688 -104.678)" style="stroke-width:.299px;stroke:#fff;stroke-miterlimit:10;fill:none"/>
        <path data-name="패스 1352" d="m226.055 376.2 16.066-4.367a14.368 14.368 0 0 0 4.076-1.568" transform="translate(-69.291 -113.758)" style="stroke-width:.299px;stroke:#fff;stroke-miterlimit:10;fill:none"/>
        <path data-name="패스 1353" d="M251.194 415.587a136.844 136.844 0 0 0 28.521-10.324" transform="translate(-76.997 -124.512)" style="stroke-width:.299px;stroke:#fff;stroke-miterlimit:10;fill:none"/>
        <path data-name="패스 1354" d="M229.272 383.292a400.255 400.255 0 0 0 43.383-15.092" transform="translate(-70.277 -113.128)" style="stroke-width:.299px;stroke:#fff;stroke-miterlimit:10;fill:none"/>
        <path data-name="패스 1355" d="M194.751 220.1c21.769-12.426 41.758-22.992 64.287-33.982" transform="translate(-59.696 -57.188)" style="fill:#fff"/>
        <path data-name="패스 1356" d="M224.365 375.485a128.22 128.22 0 0 0 19.45-7.177" transform="translate(-68.773 -113.156)" style="stroke-width:.299px;stroke:#000;stroke-miterlimit:10;fill:none"/>
        <path data-name="패스 1357" d="M228.688 383.35c14.3-4.082 28.636-8.172 42.495-13.578" transform="translate(-70.098 -113.609)" style="stroke-width:.299px;stroke:#000;stroke-miterlimit:10;fill:none"/>
        <path data-name="패스 1358" d="M253.925 413.227a150.753 150.753 0 0 0 27.966-10.264" transform="translate(-77.834 -123.805)" style="stroke-width:.299px;stroke:#000;stroke-miterlimit:10;fill:none"/>
        <path data-name="패스 1359" d="M234.379 395.82a44.3 44.3 0 0 0 13.426-4" transform="translate(-71.843 -120.377)" style="stroke-width:.299px;stroke:#000;stroke-miterlimit:10;fill:none"/>
        <path data-name="패스 1360" d="M131.336 27.472a7.012 7.012 0 0 0 5.451-2.175 12.618 12.618 0 0 0 3.758-6.879.979.979 0 0 0-.025-.614c-.213-.424-.847-.343-1.268-.124a3.729 3.729 0 0 0-2.033 3.246 3.068 3.068 0 0 0 2.32 2.922 2.614 2.614 0 0 0 3.021-1.982l.87 2.63 3.367-1.349a1.306 1.306 0 0 1 .682-.139 2.182 2.182 0 0 1 .776.464 1.7 1.7 0 0 0 2.445-.872" transform="translate(-40.258 -5.364)" style="stroke-width:.299px;stroke:#000;stroke-miterlimit:10;fill:none"/>
        <path data-name="패스 1361" d="M162.372 19.814c.569 1.062 1.75 1.666 2.414 2.672s.243 2.86-.954 2.714" transform="translate(-49.771 -6.073)" style="stroke-width:.299px;stroke:#000;stroke-miterlimit:10;fill:none"/>
        <path data-name="패스 1362" d="M126.482 25.674a1.925 1.925 0 0 0 .629 3.605" transform="translate(-38.457 -7.87)" style="stroke-width:.299px;stroke:#000;stroke-miterlimit:10;fill:none"/>
        <path data-name="패스 1363" d="M83.784 150.988a10.247 10.247 0 0 0 5.444 1.148" transform="translate(-25.682 -46.387)" style="stroke-width:.299px;stroke:#000;stroke-miterlimit:10;fill:none"/>
        <path data-name="패스 1364" d="M87.5 156.252a94.767 94.767 0 0 0 37.83 38.939" transform="translate(-26.821 -48.013)" style="stroke-width:.299px;stroke:#000;stroke-miterlimit:10;fill:none"/>
        <path data-name="패스 1365" d="M41.438 69.368A372.9 372.9 0 0 0 92.225 60.5" transform="translate(-12.702 -18.546)" style="stroke-width:.299px;stroke:#000;stroke-miterlimit:10;fill:none"/>
        <path data-name="패스 1366" d="m222.882 360.225 53.179-18.443" transform="translate(-68.319 -105.012)" style="stroke-width:.299px;stroke:#000;stroke-miterlimit:10;fill:none"/>
    </g>
</svg>
